# xmcd CD database file
#
# Track frame offsets:
#	187
#	20487
#	45177
#	69672
#	89532
#	103917
#	120077
#	142107
#	161992
#	180140
#	198227
#	216025
#	240152
#	259130
#	276572
#	291197
#	309892
#
# Disc length: 4413 seconds
#
# Revision: 0
# Processed by: cddbd v1.5PL3 Copyright (c) Steve Scherf et al.
# Submitted via: CDex 1.51
#
DISCID=ed113b11
DTITLE=葛城ユキ - ベスト・アルバム
DYEAR=1991
DGENRE=Japanese Rock
TTITLE0=ヒーロー
TTITLE1=DOWN TOWN DEREAM
TTITLE2=RAIN RAIN
TTITLE3=今、Heart Break
TTITLE4=哀しみのオーシャン
TTITLE5=ボヘミアン
TTITLE6=Young Heart
TTITLE7=夢に吹かれて
TTITLE8=HARD WORKIN'
TTITLE9=哀愁夜
TTITLE10=Hold On Me
TTITLE11=JAPAN BASHING
TTITLE12=Woman
TTITLE13=みどりの薔薇
TTITLE14=ハートブレイカー
TTITLE15=Fighting In The Danger
TTITLE16=心からイエスタディ
EXTD=YEAR: 1991
EXTT0=
EXTT1=
EXTT2=
EXTT3=
EXTT4=
EXTT5=
EXTT6=
EXTT7=
EXTT8=
EXTT9=
EXTT10=
EXTT11=
EXTT12=
EXTT13=
EXTT14=
EXTT15=
EXTT16=
PLAYORDER=
